<svg width="118" height="120" viewBox="0 0 118 120" fill="none" xmlns="http://www.w3.org/2000/svg">
<path fill-rule="evenodd" clip-rule="evenodd" d="M62.7672 111.947C60.0078 112.641 57.1196 112.641 54.3602 111.947C51.3873 111.199 48.5569 109.263 41.4392 104.221L19.3918 88.6041C14.1131 84.8651 12.0597 83.3701 10.5938 81.5127C9.23154 79.7868 8.21239 77.8159 7.59134 75.7066C6.92303 73.4368 6.88996 70.8975 6.88996 64.4287V36.5166C6.88996 30.6719 6.89265 26.4953 7.16011 23.2213C7.42433 19.9879 7.92957 17.9395 8.7673 16.2949C10.4187 13.0539 13.0537 10.4192 16.2947 8.76775C17.9389 7.92995 19.9875 7.42493 23.2211 7.16036C26.495 6.89303 30.6714 6.89028 36.5162 6.89028H80.6112C86.4558 6.89028 90.6324 6.89303 93.9065 7.16036C97.1399 7.42493 99.1882 7.92995 100.833 8.76775C104.074 10.4192 106.708 13.0539 108.36 16.2949C109.198 17.9395 109.703 19.9879 109.967 23.2213C110.235 26.4953 110.237 30.6719 110.237 36.5166V64.4287C110.237 70.8975 110.204 73.4368 109.536 75.7066C108.915 77.8159 107.896 79.7868 106.533 81.5127C105.068 83.3701 103.014 84.8651 97.7358 88.6041L75.6884 104.221C68.5705 109.263 65.7402 111.199 62.7672 111.947ZM52.6791 118.628C56.5422 119.6 60.5852 119.6 64.4483 118.628C68.8296 117.526 72.7671 114.736 79.0465 110.285C79.2525 110.14 79.4599 109.992 79.6707 109.843L101.718 94.2264C101.871 94.1182 102.022 94.0113 102.171 93.9056C106.848 90.5944 109.785 88.5147 111.942 85.7812C113.849 83.3649 115.276 80.6056 116.145 77.6527C117.129 74.3123 117.129 70.7136 117.127 64.9833C117.127 64.8007 117.127 64.6154 117.127 64.4287V36.3636C117.127 30.705 117.127 26.2473 116.834 22.6604C116.535 19.0005 115.914 15.9442 114.499 13.1669C112.187 8.62996 108.498 4.94046 103.961 2.62892C101.184 1.21375 98.1272 0.59228 94.4673 0.293261C90.8805 0.000443474 86.4227 0.000446631 80.7641 0.000446631H36.3631C30.7048 0.000446631 26.2472 0.000443474 22.66 0.293261C19.0003 0.59228 15.9442 1.21375 13.1668 2.62892C8.62943 4.94046 4.94034 8.62996 2.62846 13.1669C1.21336 15.9442 0.592172 19.0005 0.293153 22.6604C5.99059e-05 26.2473 0.000128395 30.705 0.000128395 36.3636V64.4287C0.000128395 64.6154 0.000128301 64.8007 5.94027e-05 64.9833C-0.000905174 70.7136 -0.00152542 74.3123 0.982067 77.6527C1.85149 80.6056 3.27838 83.3649 5.18549 85.7812C7.34283 88.5147 10.28 90.5944 14.9563 93.9056C15.1055 94.0112 15.2565 94.1182 15.4093 94.2264L37.4568 109.843C37.6673 109.992 37.8752 110.14 38.0806 110.285C44.3603 114.736 48.2978 117.526 52.6791 118.628Z" fill="#F87171"/>
<path fill-rule="evenodd" clip-rule="evenodd" d="M91.2094 71.274C93.1096 69.3728 93.1096 66.2908 91.2094 64.3896L62.0049 35.185C60.1036 33.2848 57.0216 33.2848 55.1204 35.185L39.0929 51.2134L23.065 35.185C21.1642 33.2848 18.0823 33.2848 16.1815 35.185C14.2807 37.0862 14.2807 40.1683 16.1815 42.0695L35.6512 61.5392C37.552 63.4394 40.634 63.4394 42.5352 61.5392L58.5626 45.5108L84.3249 71.274C86.2261 73.1743 89.3082 73.1743 91.2094 71.274Z" fill="#F87171"/>
<path fill-rule="evenodd" clip-rule="evenodd" d="M63.4297 67.8318C63.4297 70.5196 65.6093 72.6992 68.2971 72.6992H87.7668C90.4546 72.6992 92.6342 70.5196 92.6342 67.8318V48.3621C92.6342 45.6743 90.4546 43.4947 87.7668 43.4947C85.079 43.4947 82.8994 45.6743 82.8994 48.3621V62.9644H68.2971C65.6093 62.9644 63.4297 65.144 63.4297 67.8318Z" fill="#F87171"/>
</svg>
