<svg width="118" height="120" viewBox="0 0 118 120" fill="none" xmlns="http://www.w3.org/2000/svg">
<path fill-rule="evenodd" clip-rule="evenodd" d="M62.7672 7.41056C60.0078 6.71628 57.1196 6.71628 54.3602 7.41056C51.3873 8.15866 48.5569 10.0948 41.4392 15.1363L19.3918 30.7533C14.1131 34.4924 12.0597 35.9873 10.5938 37.8447C9.23154 39.5706 8.21239 41.5415 7.59134 43.6508C6.92303 45.9206 6.88996 48.4599 6.88996 54.9288V82.8409C6.88996 88.6855 6.89265 92.8621 7.16011 96.1362C7.42433 99.3696 7.92957 101.418 8.7673 103.063C10.4187 106.303 13.0537 108.938 16.2947 110.59C17.9389 111.427 19.9875 111.932 23.2211 112.197C26.495 112.464 30.6714 112.467 36.5162 112.467H80.6112C86.4558 112.467 90.6324 112.464 93.9065 112.197C97.1399 111.932 99.1882 111.427 100.833 110.59C104.074 108.938 106.708 106.303 108.36 103.063C109.198 101.418 109.703 99.3696 109.967 96.1362C110.235 92.8621 110.237 88.6855 110.237 82.8409V54.9288C110.237 48.4599 110.204 45.9206 109.536 43.6508C108.915 41.5415 107.896 39.5706 106.533 37.8447C105.068 35.9873 103.014 34.4924 97.7358 30.7533L75.6884 15.1363C68.5705 10.0948 65.7402 8.15866 62.7672 7.41056ZM52.6791 0.729013C56.5422 -0.243004 60.5852 -0.243004 64.4483 0.729013C68.8296 1.83152 72.7671 4.62184 79.0465 9.07205C79.2525 9.21763 79.4599 9.36494 79.6707 9.5141L101.718 25.131C101.871 25.2392 102.022 25.3461 102.171 25.4518C106.848 28.763 109.785 30.8427 111.942 33.5762C113.849 35.9925 115.276 38.7518 116.145 41.7047C117.129 45.0452 117.129 48.6439 117.127 54.3741C117.127 54.5567 117.127 54.7421 117.127 54.9288V82.9938C117.127 88.6524 117.127 93.1102 116.834 96.697C116.535 100.357 115.914 103.413 114.499 106.191C112.187 110.727 108.498 114.417 103.961 116.729C101.184 118.144 98.1272 118.765 94.4673 119.064C90.8805 119.357 86.4227 119.357 80.7641 119.357H36.3631C30.7048 119.357 26.2472 119.357 22.66 119.064C19.0003 118.765 15.9442 118.144 13.1668 116.729C8.62943 114.417 4.94034 110.727 2.62846 106.191C1.21336 103.413 0.592172 100.357 0.293153 96.697C5.99059e-05 93.1102 0.000128395 88.6524 0.000128395 82.9938V54.9288C0.000128395 54.7421 0.000128301 54.5567 5.94027e-05 54.3741C-0.000905174 48.6439 -0.00152542 45.0452 0.982067 41.7047C1.85149 38.7518 3.27838 35.9925 5.18549 33.5762C7.34283 30.8427 10.28 28.763 14.9563 25.4518C15.1055 25.3462 15.2565 25.2392 15.4093 25.131L37.4568 9.5141C37.6673 9.36494 37.8752 9.21763 38.0806 9.07205C44.3603 4.62184 48.2978 1.83152 52.6791 0.729013Z" fill="#34D399"/>
<path fill-rule="evenodd" clip-rule="evenodd" d="M91.2094 48.0834C93.1096 49.9846 93.1096 53.0666 91.2094 54.9679L62.0049 84.1724C60.1036 86.0726 57.0216 86.0726 55.1204 84.1724L39.0929 68.144L23.065 84.1724C21.1642 86.0726 18.0823 86.0726 16.1815 84.1724C14.2807 82.2712 14.2807 79.1891 16.1815 77.2879L35.6512 57.8182C37.552 55.918 40.634 55.918 42.5352 57.8182L58.5626 73.8467L84.3249 48.0834C86.2261 46.1831 89.3082 46.1831 91.2094 48.0834Z" fill="#34D399"/>
<path fill-rule="evenodd" clip-rule="evenodd" d="M63.4297 51.5256C63.4297 48.8378 65.6093 46.6582 68.2971 46.6582H87.7668C90.4546 46.6582 92.6342 48.8378 92.6342 51.5256V70.9953C92.6342 73.6831 90.4546 75.8628 87.7668 75.8628C85.079 75.8628 82.8994 73.6831 82.8994 70.9953V56.3931H68.2971C65.6093 56.3931 63.4297 54.2134 63.4297 51.5256Z" fill="#34D399"/>
</svg>
