<svg width="512" height="512" viewBox="0 0 512 512" fill="none" xmlns="http://www.w3.org/2000/svg">
<g clip-path="url(#clip0_13_2)">
<path d="M396.8 0H115.2C51.5768 0 0 51.5768 0 115.2V396.8C0 460.423 51.5768 512 115.2 512H396.8C460.423 512 512 460.423 512 396.8V115.2C512 51.5768 460.423 0 396.8 0Z" fill="#DEF4FF"/>
<path d="M115.2 345.6L256 140.8L396.8 345.6H115.2Z" fill="#1A5FD4"/>
<path d="M179.2 345.6L256 204.8L332.8 345.6H179.2Z" fill="#38C0FF"/>
<path d="M396.8 179.2C418.008 179.2 435.2 162.008 435.2 140.8C435.2 119.592 418.008 102.4 396.8 102.4C375.592 102.4 358.4 119.592 358.4 140.8C358.4 162.008 375.592 179.2 396.8 179.2Z" fill="#38C0FF"/>
<path d="M115.2 345.6H396.8" stroke="#38C0FF" stroke-width="16" stroke-linecap="round"/>
</g>
<defs>
<clipPath id="clip0_13_2">
<rect width="512" height="512" fill="white"/>
</clipPath>
</defs>
</svg>
